<mxfile host="app.diagrams.net" agent="Mozilla/5.0 (Windows NT 10.0; Win64; x64) AppleWebKit/537.36 (KHTML, like Gecko) Chrome/134.0.0.0 Safari/537.36 OPR/119.0.0.0" version="27.1.3">
  <diagram name="Page-1" id="GdWa5QTDgYt8z316PTSi">
    <mxGraphModel dx="1979" dy="1080" grid="1" gridSize="10" guides="1" tooltips="1" connect="1" arrows="1" fold="1" page="1" pageScale="1" pageWidth="850" pageHeight="1100" math="0" shadow="0">
      <root>
        <mxCell id="0" />
        <mxCell id="1" parent="0" />
        <mxCell id="tUWvobzkTudV1cqjpl4K-1" value="Start" style="ellipse;whiteSpace=wrap;html=1;" vertex="1" parent="1">
          <mxGeometry x="359" y="70" width="132" height="60" as="geometry" />
        </mxCell>
        <mxCell id="tUWvobzkTudV1cqjpl4K-6" value="" style="verticalLabelPosition=bottom;verticalAlign=top;html=1;strokeWidth=2;shape=mxgraph.arrows2.arrow;dy=0.6;dx=40;notch=0;direction=south;" vertex="1" parent="1">
          <mxGeometry x="405" y="130" width="45" height="100" as="geometry" />
        </mxCell>
        <mxCell id="tUWvobzkTudV1cqjpl4K-7" value="Process" style="rounded=0;whiteSpace=wrap;html=1;" vertex="1" parent="1">
          <mxGeometry x="365" y="230" width="120" height="60" as="geometry" />
        </mxCell>
        <mxCell id="tUWvobzkTudV1cqjpl4K-8" value="" style="verticalLabelPosition=bottom;verticalAlign=top;html=1;strokeWidth=2;shape=mxgraph.arrows2.arrow;dy=0.6;dx=40;notch=0;direction=south;" vertex="1" parent="1">
          <mxGeometry x="405" y="290" width="40" height="100" as="geometry" />
        </mxCell>
        <mxCell id="tUWvobzkTudV1cqjpl4K-9" value="Decision" style="rhombus;whiteSpace=wrap;html=1;" vertex="1" parent="1">
          <mxGeometry x="385" y="390" width="80" height="80" as="geometry" />
        </mxCell>
        <mxCell id="tUWvobzkTudV1cqjpl4K-10" value="" style="verticalLabelPosition=bottom;verticalAlign=top;html=1;strokeWidth=2;shape=mxgraph.arrows2.arrow;dy=0.6;dx=40;notch=0;direction=east;" vertex="1" parent="1">
          <mxGeometry x="465" y="410" width="100" height="40" as="geometry" />
        </mxCell>
        <mxCell id="tUWvobzkTudV1cqjpl4K-11" value="A" style="ellipse;whiteSpace=wrap;html=1;aspect=fixed;" vertex="1" parent="1">
          <mxGeometry x="565" y="390" width="80" height="80" as="geometry" />
        </mxCell>
        <mxCell id="tUWvobzkTudV1cqjpl4K-12" value="" style="verticalLabelPosition=bottom;verticalAlign=top;html=1;strokeWidth=2;shape=mxgraph.arrows2.arrow;dy=0.6;dx=40;notch=0;direction=south;" vertex="1" parent="1">
          <mxGeometry x="405" y="470" width="40" height="100" as="geometry" />
        </mxCell>
        <mxCell id="tUWvobzkTudV1cqjpl4K-13" value="Input/Output" style="shape=parallelogram;perimeter=parallelogramPerimeter;whiteSpace=wrap;html=1;fixedSize=1;" vertex="1" parent="1">
          <mxGeometry x="365" y="570" width="120" height="60" as="geometry" />
        </mxCell>
        <mxCell id="tUWvobzkTudV1cqjpl4K-14" value="" style="verticalLabelPosition=bottom;verticalAlign=top;html=1;strokeWidth=2;shape=mxgraph.arrows2.arrow;dy=0.6;dx=40;notch=0;direction=south;" vertex="1" parent="1">
          <mxGeometry x="405" y="630" width="40" height="100" as="geometry" />
        </mxCell>
        <mxCell id="tUWvobzkTudV1cqjpl4K-15" value="Document" style="rounded=0;whiteSpace=wrap;html=1;" vertex="1" parent="1">
          <mxGeometry x="365" y="730" width="120" height="60" as="geometry" />
        </mxCell>
        <mxCell id="tUWvobzkTudV1cqjpl4K-16" value="" style="verticalLabelPosition=bottom;verticalAlign=top;html=1;strokeWidth=2;shape=mxgraph.arrows2.arrow;dy=0.6;dx=40;notch=0;direction=south;" vertex="1" parent="1">
          <mxGeometry x="405" y="790" width="40" height="100" as="geometry" />
        </mxCell>
        <mxCell id="tUWvobzkTudV1cqjpl4K-17" value="" style="ellipse;whiteSpace=wrap;html=1;" vertex="1" parent="1">
          <mxGeometry x="365" y="890" width="120" height="80" as="geometry" />
        </mxCell>
      </root>
    </mxGraphModel>
  </diagram>
</mxfile>
